# xmcd CD database file
#
# Track frame offsets:
#	150
#	28870
#	50974
#	66488
#	93830
#	114632
#	139323
#	158250
#	179376
#	202608
#	222730
#	239813
#	258331
#	277105
#	298980
#
# Disc length: 4445 seconds
#
# Revision: 0
# Processed by: cddbd v1.5.2PL0 Copyright (c) Steve Scherf et al.
# Submitted via: CDex 1.51
#
DISCID=f5115b0f
DTITLE=Eddie Taylor - Live In Japan 1977 Deluxe Edition CD 1
DYEAR=1977
DGENRE=Blues
TTITLE0=Honky Tonk
TTITLE1=That`s All Right
TTITLE2=Kansas City
TTITLE3=I Don`t Know
TTITLE4=Drinkin' Wine Spo-Dee-O-Dee
TTITLE5=She`s Nineteen Years Old
TTITLE6=Got My Mojo Working
TTITLE7=Stop Breakin' Down
TTITLE8=Goin' Down Slow
TTITLE9=My Sometimes Baby
TTITLE10=Bad Boy
TTITLE11=Blow Wind Blow
TTITLE12=Going Upside Your Head
TTITLE13=You`re Gonna Look For Me
TTITLE14=Kind Hearted Woman
EXTD=YEAR: 1977
EXTT0=
EXTT1=
EXTT2=
EXTT3=
EXTT4=
EXTT5=
EXTT6=
EXTT7=
EXTT8=
EXTT9=
EXTT10=
EXTT11=
EXTT12=
EXTT13=
EXTT14=
PLAYORDER=
